<svg width="44" height="44" viewBox="0 0 44 44" fill="none" xmlns="http://www.w3.org/2000/svg">
<path d="M13.2005 18.8525L21.9977 10.1401L30.7995 18.8571L35.9184 13.7874L21.9977 0L8.08163 13.7828L13.2005 18.8525Z" fill="#F3BA2F"/>
<path d="M9.94405 21.9992L4.97215 17.0273L6.70696e-06 21.9995L4.97191 26.9714L9.94405 21.9992Z" fill="#F3BA2F"/>
<path d="M13.2061 25.1471L22.0002 33.8597L30.7985 25.1428L35.9184 30.2098L35.9159 30.2126L22.0002 44L8.08879 30.2172L8.08163 30.2101L13.2061 25.1471Z" fill="#F3BA2F"/>
<path d="M39.0285 26.9737L44.0007 22.0016L39.0288 17.0297L34.0566 22.0018L39.0285 26.9737Z" fill="#F3BA2F"/>
<path d="M26.9344 21.9975H26.9364L22 17.0613L18.3519 20.7092H18.3516L17.9327 21.1284L17.068 21.9931L17.0612 21.9999L17.068 22.007L22 26.9388L26.9364 22.0026L26.9388 21.9999L26.9344 21.9975Z" fill="#F3BA2F"/>
</svg>
