<svg width="47" height="47" viewBox="0 0 47 47" fill="none" xmlns="http://www.w3.org/2000/svg">
<path d="M23.5 47C36.4787 47 47 36.4787 47 23.5C47 10.5213 36.4787 0 23.5 0C10.5213 0 0 10.5213 0 23.5C0 36.4787 10.5213 47 23.5 47Z" fill="#2E3148"/>
<path d="M23.5 37.1358C31.0309 37.1358 37.1358 31.0308 37.1358 23.5C37.1358 15.9691 31.0309 9.86414 23.5 9.86414C15.9691 9.86414 9.86417 15.9691 9.86417 23.5C9.86417 31.0308 15.9691 37.1358 23.5 37.1358Z" fill="#1B1E36"/>
<path d="M23.5483 2.99805C21.0116 2.99805 18.9547 12.1988 18.9547 23.5485C18.9547 34.8983 21.0116 44.099 23.5483 44.099C26.085 44.099 28.1419 34.8983 28.1419 23.5485C28.1419 12.1988 26.085 2.99805 23.5483 2.99805ZM23.8655 42.9392C23.5754 43.3261 23.2853 43.0358 23.2853 43.0358C22.1171 41.6822 21.533 39.1676 21.533 39.1676C19.4896 32.5915 19.976 18.4721 19.976 18.4721C20.9363 7.26283 22.6832 4.61485 23.2776 4.02697C23.3383 3.96697 23.4182 3.93031 23.5033 3.92343C23.5884 3.91655 23.6732 3.9399 23.7427 3.98937C24.6053 4.60056 25.3287 7.15661 25.3287 7.15661C27.4649 15.0866 27.2715 22.5331 27.2715 22.5331C27.4649 29.0125 26.201 36.2656 26.201 36.2656C25.2281 41.7777 23.8655 42.9392 23.8655 42.9392Z" fill="#6F7390"/>
<path d="M41.3735 13.3215C40.1105 11.1204 31.107 13.9152 21.2575 19.5631C11.408 25.211 4.46029 31.5742 5.72234 33.7744C6.98438 35.9745 15.9888 33.1807 25.8383 27.5328C35.6878 21.8849 42.6356 15.5216 41.3735 13.3215ZM6.88756 33.4725C6.40402 33.4115 6.51325 33.0141 6.51325 33.0141C7.10639 31.3276 8.99391 29.5694 8.99391 29.5694C13.6832 24.5242 26.1732 17.92 26.1732 17.92C36.3729 13.1745 39.5411 13.3747 40.3448 13.596C40.4273 13.619 40.499 13.6705 40.5471 13.7413C40.5953 13.8121 40.6169 13.8977 40.608 13.9829C40.5114 15.0357 38.6496 16.9345 38.6496 16.9345C32.8381 22.736 26.2824 26.2745 26.2824 26.2745C20.7584 29.6679 13.8381 32.1794 13.8381 32.1794C8.57242 34.0769 6.88775 33.4725 6.88775 33.4725H6.88756Z" fill="#6F7390"/>
<path d="M41.329 33.8477C42.6017 31.6524 35.6715 25.26 25.8566 19.5696C16.0417 13.8792 7.03928 11.0498 5.76765 13.2489C4.49602 15.4479 11.4251 21.8365 21.2457 27.5269C31.0662 33.2173 40.0573 36.0469 41.329 33.8477ZM6.61102 14.0971C6.42301 13.6514 6.81988 13.544 6.81988 13.544C8.57693 13.2122 11.045 13.9683 11.045 13.9683C17.7594 15.4973 29.7322 22.997 29.7322 22.997C38.9504 29.4475 40.3642 32.2888 40.576 33.0953C40.5976 33.178 40.5892 33.2657 40.5524 33.3428C40.5156 33.42 40.4527 33.4817 40.3749 33.517C39.4136 33.9571 36.8392 33.3013 36.8392 33.3013C28.9042 31.1737 22.5583 27.2755 22.5583 27.2755C16.8565 24.2002 11.2183 19.4683 11.2183 19.4683C6.93419 15.8611 6.61233 14.102 6.61233 14.102L6.61102 14.0971Z" fill="#6F7390"/>
<path d="M23.5 25.9178C24.8352 25.9178 25.9177 24.8353 25.9177 23.5001C25.9177 22.1648 24.8352 21.0824 23.5 21.0824C22.1647 21.0824 21.0823 22.1648 21.0823 23.5001C21.0823 24.8353 22.1647 25.9178 23.5 25.9178Z" fill="#B7B9C8"/>
<path d="M33.4125 15.6666C34.1869 15.6666 34.8148 15.0171 34.8148 14.216C34.8148 13.4148 34.1869 12.7654 33.4125 12.7654C32.638 12.7654 32.0102 13.4148 32.0102 14.216C32.0102 15.0171 32.638 15.6666 33.4125 15.6666Z" fill="#B7B9C8"/>
<path d="M10.396 20.5987C11.1705 20.5987 11.7983 19.9493 11.7983 19.1481C11.7983 18.347 11.1705 17.6975 10.396 17.6975C9.62156 17.6975 8.99373 18.347 8.99373 19.1481C8.99373 19.9493 9.62156 20.5987 10.396 20.5987Z" fill="#B7B9C8"/>
<path d="M20.6471 38.3929C21.4216 38.3929 22.0494 37.7435 22.0494 36.9423C22.0494 36.1412 21.4216 35.4917 20.6471 35.4917C19.8726 35.4917 19.2448 36.1412 19.2448 36.9423C19.2448 37.7435 19.8726 38.3929 20.6471 38.3929Z" fill="#B7B9C8"/>
</svg>
