<svg width="17" height="13" viewBox="0 0 17 13" fill="none" xmlns="http://www.w3.org/2000/svg">
<path d="M14.3841 1.08038C13.3074 0.576761 12.1417 0.211232 10.9274 3.73638e-05C10.9167 -0.000304287 10.9061 0.0017005 10.8964 0.00591082C10.8866 0.0101211 10.8778 0.0164347 10.8707 0.0244062C10.725 0.292461 10.555 0.641744 10.4417 0.909799C9.15367 0.71485 7.84382 0.71485 6.55584 0.909799C6.4425 0.633621 6.2725 0.292461 6.11868 0.0244062C6.11059 0.00816041 6.0863 3.73638e-05 6.06201 3.73638e-05C4.84769 0.211232 3.69004 0.576761 2.60525 1.08038C2.59716 1.08038 2.58906 1.0885 2.58097 1.09663C0.379 4.40264 -0.228159 7.61929 0.0713729 10.8035C0.0713729 10.8197 0.0794683 10.836 0.0956592 10.8441C1.55284 11.9163 2.95336 12.5661 4.33768 12.9966C4.36197 13.0048 4.38625 12.9966 4.39435 12.9804C4.71817 12.5336 5.0096 12.0625 5.26056 11.567C5.27675 11.5345 5.26056 11.502 5.22818 11.4939C4.76674 11.3152 4.32958 11.104 3.90053 10.8603C3.86814 10.8441 3.86814 10.7953 3.89243 10.771C3.98148 10.706 4.07053 10.6329 4.15958 10.5679C4.17577 10.5517 4.20006 10.5517 4.21625 10.5598C7.00109 11.8351 10.0045 11.8351 12.757 10.5598C12.7731 10.5517 12.7974 10.5517 12.8136 10.5679C12.9027 10.641 12.9917 10.706 13.0808 10.7791C13.1132 10.8035 13.1132 10.8522 13.0727 10.8684C12.6517 11.1203 12.2065 11.3233 11.745 11.502C11.7126 11.5101 11.7045 11.5508 11.7126 11.5751C11.9717 12.0706 12.2631 12.5418 12.5789 12.9885C12.6031 12.9966 12.6274 13.0048 12.6517 12.9966C14.0441 12.5661 15.4446 11.9163 16.9018 10.8441C16.918 10.836 16.9261 10.8197 16.9261 10.8035C17.2823 7.1238 16.3352 3.93151 14.4165 1.09663C14.4084 1.0885 14.4003 1.08038 14.3841 1.08038V1.08038ZM5.68153 8.86209C4.84769 8.86209 4.15148 8.09042 4.15148 7.14004C4.15148 6.18967 4.8315 5.41799 5.68153 5.41799C6.53965 5.41799 7.21966 6.19779 7.21157 7.14004C7.21157 8.09042 6.53155 8.86209 5.68153 8.86209ZM11.3241 8.86209C10.4902 8.86209 9.79402 8.09042 9.79402 7.14004C9.79402 6.18967 10.474 5.41799 11.3241 5.41799C12.1822 5.41799 12.8622 6.19779 12.8541 7.14004C12.8541 8.09042 12.1822 8.86209 11.3241 8.86209Z" fill="black"/>
</svg>
