<svg width="16" height="15" viewBox="0 0 16 15" fill="none" xmlns="http://www.w3.org/2000/svg">
<path d="M0.8 0H15.2C15.4122 0 15.6157 0.0877973 15.7657 0.244078C15.9157 0.400358 16 0.61232 16 0.833333V14.1667C16 14.3877 15.9157 14.5996 15.7657 14.7559C15.6157 14.9122 15.4122 15 15.2 15H0.8C0.587827 15 0.384344 14.9122 0.234315 14.7559C0.0842854 14.5996 0 14.3877 0 14.1667V0.833333C0 0.61232 0.0842854 0.400358 0.234315 0.244078C0.384344 0.0877973 0.587827 0 0.8 0V0ZM5.2 9.16667V10.8333H7.2V12.5H8.8V10.8333H9.6C10.1304 10.8333 10.6391 10.6138 11.0142 10.2231C11.3893 9.83244 11.6 9.30253 11.6 8.75C11.6 8.19747 11.3893 7.66756 11.0142 7.27686C10.6391 6.88616 10.1304 6.66667 9.6 6.66667H6.4C6.29391 6.66667 6.19217 6.62277 6.11716 6.54463C6.04214 6.46649 6 6.36051 6 6.25C6 6.13949 6.04214 6.03351 6.11716 5.95537C6.19217 5.87723 6.29391 5.83333 6.4 5.83333H10.8V4.16667H8.8V2.5H7.2V4.16667H6.4C5.86957 4.16667 5.36086 4.38616 4.98579 4.77686C4.61071 5.16756 4.4 5.69747 4.4 6.25C4.4 6.80253 4.61071 7.33244 4.98579 7.72314C5.36086 8.11384 5.86957 8.33333 6.4 8.33333H9.6C9.70609 8.33333 9.80783 8.37723 9.88284 8.45537C9.95786 8.53351 10 8.63949 10 8.75C10 8.86051 9.95786 8.96649 9.88284 9.04463C9.80783 9.12277 9.70609 9.16667 9.6 9.16667H5.2Z" fill="black"/>
</svg>
