<svg width="9" height="13" viewBox="0 0 9 13" fill="none" xmlns="http://www.w3.org/2000/svg">
<path d="M4.5 6.175C4.07376 6.175 3.66498 6.0038 3.36358 5.69905C3.06218 5.3943 2.89286 4.98098 2.89286 4.55C2.89286 4.11902 3.06218 3.7057 3.36358 3.40095C3.66498 3.0962 4.07376 2.925 4.5 2.925C4.92624 2.925 5.33502 3.0962 5.63642 3.40095C5.93782 3.7057 6.10714 4.11902 6.10714 4.55C6.10714 4.7634 6.06557 4.97471 5.98481 5.17186C5.90404 5.36901 5.78566 5.54815 5.63642 5.69905C5.48718 5.84994 5.31001 5.96964 5.11503 6.0513C4.92004 6.13297 4.71105 6.175 4.5 6.175M4.5 0C3.30653 0 2.16193 0.479374 1.31802 1.33266C0.474106 2.18595 0 3.34326 0 4.55C0 7.9625 4.5 13 4.5 13C4.5 13 9 7.9625 9 4.55C9 3.34326 8.52589 2.18595 7.68198 1.33266C6.83807 0.479374 5.69347 0 4.5 0V0Z" fill="black"/>
</svg>
