<svg width="76" height="22" viewBox="0 0 76 22" fill="none" xmlns="http://www.w3.org/2000/svg">
<path d="M0.888916 1.18322H6.48046V4.01076C6.78788 3.57539 7.13178 3.16696 7.50844 2.78988C7.90803 2.41253 8.338 2.0687 8.794 1.7619C9.27638 1.46189 9.79491 1.22437 10.3371 1.05501C10.9636 0.874923 11.6131 0.788133 12.2649 0.797439C13.1802 0.742106 14.0965 0.885784 14.951 1.21858C15.8054 1.55137 16.5775 2.06537 17.2142 2.7252C18.4398 4.22366 19.0582 6.12768 18.9468 8.06032V20.8489H13.3633V9.92224C13.4303 8.84068 13.1115 7.77043 12.4636 6.90182C12.1515 6.55106 11.7636 6.27614 11.3292 6.098C10.8949 5.91985 10.4256 5.84319 9.95712 5.87383C9.47968 5.84877 9.0025 5.92772 8.55857 6.10521C8.11464 6.2827 7.71456 6.5545 7.38601 6.90182C6.67822 7.74173 6.3315 8.82757 6.42155 9.92224V20.9124H0.888916V1.18322ZM32.7045 21.2994C31.2975 21.2985 29.9029 21.0369 28.5914 20.5278C27.3567 20.0693 26.2377 19.3454 25.3134 18.4072C24.385 17.4866 23.643 16.3955 23.128 15.1938C22.6132 13.8839 22.3514 12.4882 22.3565 11.0807V11.0161C22.3668 9.65752 22.6058 8.3104 23.0633 7.03118C23.5242 5.8272 24.1992 4.71662 25.0558 3.75318C25.9561 2.799 27.0419 2.03888 28.2465 1.51948C29.4512 1.00008 30.7492 0.732362 32.0611 0.732757C33.5285 0.669946 34.988 0.979477 36.3036 1.63253C37.4683 2.19521 38.4968 3.00421 39.3181 4.00356C40.1394 5.00291 40.7337 6.16875 41.06 7.42043C41.4495 8.73478 41.6441 10.0992 41.6375 11.47V12.1769C41.648 12.4358 41.6263 12.6949 41.5728 12.9484H27.9434C28.1194 14.0862 28.7158 15.1166 29.6147 15.836C30.5239 16.5074 31.6353 16.8477 32.7645 16.8005C33.6212 16.813 34.4722 16.66 35.271 16.35C36.1068 15.9742 36.8696 15.4538 37.5244 14.8127L40.7377 17.6356C39.83 18.7903 38.6631 19.715 37.3315 20.3349C35.8947 21.0401 34.3034 21.3718 32.7045 21.2994ZM36.3036 9.47293C36.1802 8.34975 35.708 7.29345 34.9533 6.45251C34.5974 6.06211 34.1589 5.75589 33.6698 5.5561C33.1807 5.35631 32.6533 5.26796 32.1258 5.29747C31.5983 5.26796 31.0708 5.35631 30.5817 5.5561C30.0927 5.75589 29.6542 6.06211 29.2982 6.45251C28.5254 7.28853 28.0314 8.34397 27.8845 9.47293H36.3036ZM45.2424 1.18322H50.8339V4.01076C51.155 3.56029 51.5408 3.17566 51.8619 2.78988C52.2615 2.41253 52.6915 2.06871 53.1475 1.7619C53.6361 1.47372 54.1533 1.23683 54.6906 1.05501C56.4564 0.563005 58.3438 0.76982 59.9611 1.63253C60.9183 2.14844 61.6844 2.95827 62.1464 3.94261C62.9253 2.95011 63.9106 2.13866 65.034 1.56438C66.1542 1.02147 67.3888 0.756798 68.6331 0.792819C69.5321 0.747717 70.4306 0.890167 71.2715 1.21111C72.1124 1.53206 72.8774 2.02447 73.5177 2.65705C74.7727 4.16427 75.3938 6.09967 75.2503 8.0557V20.9136H69.6611V9.9234C69.7468 8.84968 69.4511 7.78013 68.826 6.90297C68.5268 6.55344 68.1502 6.27853 67.7261 6.10007C67.302 5.92162 66.8422 5.84455 66.3831 5.87499C65.9146 5.84434 65.4453 5.92101 65.011 6.09915C64.5766 6.2773 64.1887 6.55222 63.8766 6.90297C63.2191 7.76672 62.8992 8.84064 62.9769 9.9234V20.9136H57.3853V9.9234C57.471 8.84969 57.1753 7.78017 56.5502 6.90297C56.251 6.55344 55.8744 6.27853 55.4503 6.10007C55.0263 5.92162 54.5664 5.84455 54.1073 5.87499C53.6389 5.84434 53.1696 5.92101 52.7352 6.09915C52.3009 6.2773 51.9129 6.55222 51.6009 6.90297C50.9433 7.76672 50.6234 8.84064 50.7011 9.9234V20.9136H45.2424V1.18322Z" fill="#AAAAAA"/>
</svg>
