<svg width="139" height="29" viewBox="0 0 139 29" fill="none" xmlns="http://www.w3.org/2000/svg">
<g clip-path="url(#clip0_1_100)">
<path d="M24.6173 8.84781C24.0119 8.48085 23.2322 8.48085 22.5755 8.84781L17.8764 11.6714L14.6855 13.5163L9.98642 16.3399C9.38108 16.7069 8.60131 16.7069 7.94466 16.3399L4.21 14.1279C3.60465 13.761 3.18399 13.0882 3.18399 12.3441V7.99157C3.18399 7.25765 3.54309 6.58489 4.21 6.20773L7.8831 4.05694C8.48845 3.68998 9.26822 3.68998 9.92486 4.05694L13.598 6.20773C14.2033 6.57469 14.624 7.24745 14.624 7.99157V10.8151L17.8149 8.90897V6.08541C17.8149 5.3515 17.4558 4.67874 16.7889 4.30158L9.98642 0.254834C9.38108 -0.112126 8.60131 -0.112126 7.94466 0.254834L1.01911 4.30158C0.352206 4.66854 -0.00689697 5.3413 -0.00689697 6.08541V14.2503C-0.00689697 14.9842 0.352206 15.6569 1.01911 16.0341L7.94466 20.0808C8.55001 20.4478 9.32978 20.4478 9.98642 20.0808L14.6855 17.3185L17.8764 15.4123L22.5755 12.6499C23.1809 12.283 23.9606 12.283 24.6173 12.6499L28.2904 14.8007C28.8957 15.1677 29.3164 15.8404 29.3164 16.5845V20.9473C29.3164 21.6812 28.9573 22.354 28.2904 22.7311L24.6173 24.9431C24.0119 25.31 23.2322 25.31 22.5755 24.9431L18.9024 22.7923C18.2971 22.4253 17.8764 21.7526 17.8764 21.0084V18.1849L14.6855 20.091V22.9146C14.6855 23.6485 15.0446 24.3213 15.7115 24.6984L22.6371 28.7452C23.2424 29.1121 24.0222 29.1121 24.6789 28.7452L31.6044 24.6984C32.2098 24.3315 32.6304 23.6587 32.6304 22.9146V14.7497C32.6304 14.0158 32.2713 13.3431 31.6044 12.9659L24.6276 8.858L24.6173 8.84781Z" fill="#AAAAAA"/>
<path d="M45.3324 26.4007V19.6221C46.0711 20.5497 47.3947 21.0696 48.944 21.0696C52.8838 21.0696 55.5515 18.2664 55.5515 13.9954C55.5515 9.72443 53.1096 6.92126 49.2723 6.92126C47.5075 6.92126 46.143 7.57364 45.3324 8.63374V7.13532H41.5567V26.4007H45.3324ZM48.4823 17.7975C46.4405 17.7975 45.1067 16.2685 45.1067 13.9852C45.1067 11.6714 46.4405 10.1525 48.4823 10.1525C50.4625 10.1525 51.827 11.6815 51.827 13.9852C51.827 16.2685 50.4727 17.7975 48.4823 17.7975Z" fill="#AAAAAA"/>
<path d="M64.1391 21.0696C68.356 21.0696 71.3725 18.0728 71.3725 13.9954C71.3725 9.9181 68.356 6.92126 64.1391 6.92126C59.9222 6.92126 56.9058 9.9181 56.9058 13.9954C56.9058 18.0728 59.9222 21.0696 64.1391 21.0696ZM64.1391 17.8077C62.0974 17.8077 60.7123 16.2583 60.7123 13.9954C60.7123 11.7121 62.0974 10.1627 64.1391 10.1627C66.1809 10.1627 67.566 11.7121 67.566 13.9954C67.566 16.2583 66.1809 17.8077 64.1391 17.8077Z" fill="#AAAAAA"/>
<path d="M77.4259 20.8555V1.17223H73.6502V20.8555H77.4259Z" fill="#AAAAAA"/>
<path d="M88.7838 7.13533L85.9315 15.9831L83.0485 7.13533H79.1907L84.1668 20.7434L82.1558 26.4007H85.7674L87.6963 20.7944L92.6724 7.13533H88.7838Z" fill="#AAAAAA"/>
<path d="M103.292 8.49104C102.532 7.54306 101.168 6.91107 99.5159 6.91107C95.5145 6.91107 93.1033 9.71424 93.1033 13.9852C93.1033 18.2562 95.5247 21.0594 99.5774 21.0594C101.178 21.0594 102.625 20.458 103.333 19.4489V21.2429C103.333 22.5272 102.491 23.4243 101.352 23.4243H95.0425V26.3905H101.948C105.046 26.3905 107.108 24.5149 107.108 21.6506V7.11494H103.302V8.48084L103.292 8.49104ZM100.162 17.7975C98.1513 17.7975 96.8175 16.2991 96.8175 13.9852C96.8175 11.6714 98.1513 10.1525 100.162 10.1525C102.204 10.1525 103.538 11.6815 103.538 13.9852C103.538 16.2991 102.204 17.7975 100.162 17.7975Z" fill="#AAAAAA"/>
<path d="M116.619 21.0696C120.836 21.0696 123.853 18.0728 123.853 13.9954C123.853 9.9181 120.836 6.92126 116.619 6.92126C112.403 6.92126 109.386 9.9181 109.386 13.9954C109.386 18.0728 112.403 21.0696 116.619 21.0696ZM116.619 17.8077C114.578 17.8077 113.193 16.2583 113.193 13.9954C113.193 11.7121 114.578 10.1627 116.619 10.1627C118.661 10.1627 120.046 11.7121 120.046 13.9954C120.046 16.2583 118.661 17.8077 116.619 17.8077Z" fill="#AAAAAA"/>
<path d="M129.722 20.8555V13.3431C129.722 11.5694 130.891 10.2953 132.553 10.2953C134.133 10.2953 135.19 11.4879 135.19 13.1494V20.8555H138.997V12.3135C138.997 9.1536 136.986 6.92126 133.887 6.92126C132.01 6.92126 130.491 7.70615 129.732 9.04148V7.13532H125.925V20.8555H129.732H129.722Z" fill="#AAAAAA"/>
</g>
<defs>
<clipPath id="clip0_1_100">
<rect width="139" height="29" fill="white"/>
</clipPath>
</defs>
</svg>
