<svg width="47" height="42" viewBox="0 0 47 42" fill="none" xmlns="http://www.w3.org/2000/svg">
<path d="M35.4605 12.8256C34.5888 12.2948 33.4659 12.2948 32.5203 12.8256L25.7532 16.9091L21.1581 19.5774L14.3911 23.6609C13.5193 24.1916 12.3964 24.1916 11.4508 23.6609L6.07262 20.4619C5.20088 19.9312 4.5951 18.9582 4.5951 17.8821V11.5872C4.5951 10.5258 5.11223 9.55283 6.07262 9.00737L11.3622 5.89681C12.2339 5.36609 13.3568 5.36609 14.3024 5.89681L19.592 9.00737C20.4637 9.53808 21.0695 10.5111 21.0695 11.5872V15.6708L25.6646 12.914V8.83047C25.6646 7.76904 25.1474 6.79607 24.187 6.25061L14.3911 0.398034C13.5193 -0.132678 12.3964 -0.132678 11.4508 0.398034L1.47752 6.25061C0.517133 6.78133 0 7.7543 0 8.83047V20.6388C0 21.7002 0.517133 22.6732 1.47752 23.2187L11.4508 29.0713C12.3225 29.602 13.4455 29.602 14.3911 29.0713L21.1581 25.0762L25.7532 22.3194L32.5203 18.3243C33.392 17.7936 34.5149 17.7936 35.4605 18.3243L40.7501 21.4349C41.6218 21.9656 42.2276 22.9386 42.2276 24.0147V30.3243C42.2276 31.3858 41.7105 32.3587 40.7501 32.9042L35.4605 36.1032C34.5888 36.6339 33.4659 36.6339 32.5203 36.1032L27.2307 32.9926C26.359 32.4619 25.7532 31.4889 25.7532 30.4128V26.3292L21.1581 29.086V33.1695C21.1581 34.231 21.6753 35.2039 22.6356 35.7494L32.6089 41.602C33.4807 42.1327 34.6036 42.1327 35.5492 41.602L45.5225 35.7494C46.3942 35.2187 47 34.2457 47 33.1695V21.3612C47 20.2998 46.4829 19.3268 45.5225 18.7813L35.4753 12.8403L35.4605 12.8256Z" fill="#7B3FE4"/>
</svg>
