<svg width="120" height="30" viewBox="0 0 120 30" fill="none" xmlns="http://www.w3.org/2000/svg">
<g clip-path="url(#clip0_1_55)">
<path d="M30.4565 3.92383L26.1873 6.10275L5.57618 16.5988C5.50532 16.0673 5.46989 15.5359 5.46989 14.9956C5.47875 8.21081 10.988 2.71922 17.7639 2.72808C19.8542 2.72808 21.9091 3.26838 23.7338 4.28698L26.1784 3.03809L26.5415 2.85208C19.8365 -2.01063 10.4566 -0.522585 5.5939 6.18246C3.73385 8.74225 2.73297 11.8335 2.73297 14.9956C2.73297 15.3764 2.75069 15.7573 2.77726 16.1382C2.85697 17.2365 2.27239 18.2728 1.29808 18.7777L0.0137634 19.4331V22.4978L3.80471 20.5669L5.03588 19.938L6.24934 19.318L27.9853 8.24624L30.4299 7.0062L35.4786 4.43756V1.3729L30.4742 3.92383H30.4565Z" fill="#AAAAAA"/>
<path d="M35.4605 7.50222L7.47124 21.7538L5.02661 23.0027L0.00448608 25.5624V28.6271L4.99118 26.085L9.26042 23.9061L29.8981 13.3924C29.9689 13.9238 30.0044 14.4641 30.0044 15.0044C30.0044 21.7892 24.4951 27.2808 17.7192 27.2808C15.62 27.2808 13.5562 26.7405 11.7228 25.713L11.5722 25.7927L8.92385 27.1391C15.6289 32.0018 25.0088 30.5137 29.8715 23.8175C31.7315 21.2578 32.7324 18.1754 32.7324 15.0133C32.7324 14.6236 32.7147 14.2427 32.6881 13.8618C32.6084 12.7635 33.193 11.7272 34.1673 11.2223L35.4605 10.5669V7.51107V7.50222Z" fill="#AAAAAA"/>
<path d="M77.6129 9.62799C73.3348 9.62799 70.0132 12.7812 70.0132 17.7502C70.0132 22.3826 72.7502 25.9345 77.7014 25.9345C81.519 25.9345 84.0167 23.6935 84.7165 21.0097H81.9795C81.3064 22.5509 80.0309 23.605 77.7014 23.605C75.3985 23.605 72.9539 21.9752 72.8653 18.6005H84.9202C85.239 13.6227 82.4135 9.62799 77.6129 9.62799ZM72.8919 16.3242C73.1222 13.1709 75.2834 11.8955 77.6129 11.8955C80.4384 11.8955 82.0415 14.1098 82.1301 16.3242H72.9007H72.8919Z" fill="#AAAAAA"/>
<path d="M53.8928 13.4455L51.4571 12.8964C49.473 12.4624 48.0027 11.5323 48.0027 9.66342C48.0027 7.30735 50.8548 6.57219 52.4845 6.57219C54.5837 6.57219 57.0283 7.41364 57.7281 9.83171H60.6156C59.7653 5.78388 56.4172 4.06554 52.6085 4.06554C49.1984 4.06554 44.9823 5.78388 44.9823 9.83171C44.9823 13.3304 47.861 14.9601 50.775 15.5979L53.4057 16.147C56.054 16.7582 57.9495 17.6351 57.9495 19.876C57.9495 21.9752 56.1692 23.4278 53.0248 23.4278C49.7299 23.4278 47.7547 21.9132 47.1967 18.9991H44.2737C44.8229 23.1975 47.9761 25.9345 52.954 25.9345C57.1523 25.9345 60.9964 23.7201 60.9964 19.6103C60.9964 15.3587 57.1258 14.1364 53.8928 13.4367V13.4455Z" fill="#AAAAAA"/>
<path d="M66.6917 5.96103H64.0434V9.89371H61.5633V12.0195H64.0434V21.6298C64.0434 24.8893 64.7431 25.5624 67.7457 25.5624H69.6678V23.3481H68.3303C66.8157 23.3481 66.7006 22.9407 66.7006 21.3109V12.0195H69.6678V9.89371H66.7006V5.96103H66.6917Z" fill="#AAAAAA"/>
<path d="M119.207 9.80514C117.134 9.89371 115.567 10.8592 114.778 12.6307V9.89371H112.183V25.5625H114.831V17.3516C114.831 13.853 116.054 12.5509 118.498 12.5509C118.994 12.5509 119.49 12.5864 119.986 12.6661V9.83171C119.721 9.80514 119.464 9.79628 119.198 9.80514H119.207Z" fill="#AAAAAA"/>
<path d="M109.632 19.6546L109.659 16.0407C109.685 11.5855 107.825 9.57485 103.423 9.57485C100.394 9.57485 97.3647 11.4703 97.1345 14.845H99.8714C99.9865 12.8964 101.244 11.7272 103.45 11.7272C105.434 11.7272 107.002 12.6572 107.002 15.5447V15.9256C100.598 16.6253 96.3993 17.7237 96.3993 21.4349C96.3993 24.3136 98.8439 25.9522 101.785 25.9522C104.583 25.9522 106.187 25.0487 107.143 23.419C107.17 24.1364 107.232 24.8627 107.347 25.5713H110.022C109.703 24.0833 109.588 22.3029 109.614 19.6634L109.632 19.6546ZM107.214 19.0168C107.214 22.7104 104.858 23.853 102.378 23.853C100.483 23.853 99.3488 22.8609 99.3488 21.3729C99.3488 19.2206 102.405 18.4942 107.214 18.0248V19.0168Z" fill="#AAAAAA"/>
<path d="M86.7005 4.4287H89.3577V25.5624H86.7005V4.4287Z" fill="#AAAAAA"/>
<path d="M92.006 4.4287H94.6544V25.5624H92.006V4.4287Z" fill="#AAAAAA"/>
</g>
<defs>
<clipPath id="clip0_1_55">
<rect width="120" height="30" fill="white"/>
</clipPath>
</defs>
</svg>
