<svg width="49" height="42" viewBox="0 0 49 42" fill="none" xmlns="http://www.w3.org/2000/svg">
<path d="M41.9801 5.4192L36.1104 8.41499L7.77226 22.8459C7.67484 22.1153 7.62612 21.3846 7.62612 20.6417C7.6383 11.3134 15.213 3.76299 24.5291 3.77517C27.4031 3.77517 30.2284 4.51803 32.7371 5.9185L36.0982 4.2014L36.5975 3.94566C27.3788 -2.74007 14.4823 -0.69416 7.79661 8.52459C5.23924 12.044 3.86313 16.2942 3.86313 20.6417C3.86313 21.1654 3.88749 21.689 3.92402 22.2127C4.03363 23.7227 3.22988 25.1476 1.89031 25.8417L0.124502 26.7429V30.9565L5.33667 28.3017L7.0294 27.437L8.69778 26.5846L38.5825 11.3621L41.9436 9.65715L48.885 6.12552V1.91193L42.0045 5.4192H41.9801Z" fill="black"/>
<path d="M48.8602 10.3391L10.3779 29.9335L7.01678 31.6506L0.111877 35.1701V39.3837L6.96807 35.8886L12.8378 32.8928L41.2125 18.4375C41.3099 19.1682 41.3586 19.911 41.3586 20.6539C41.3586 29.9822 33.7839 37.5326 24.4678 37.5326C21.5816 37.5326 18.7442 36.7898 16.2233 35.3771L16.0163 35.4867L12.3751 37.3378C21.5938 44.0235 34.4902 41.9776 41.1759 32.771C43.7333 29.2516 45.1094 25.0136 45.1094 20.6661C45.1094 20.1302 45.0851 19.6066 45.0485 19.0829C44.9389 17.5729 45.7427 16.148 47.0823 15.4539L48.8602 14.5527V10.3513V10.3391Z" fill="black"/>
</svg>
