<svg width="17" height="17" viewBox="0 0 17 17" fill="none" xmlns="http://www.w3.org/2000/svg">
<path d="M8.5 0C3.808 0 0 3.808 0 8.5C0 13.192 3.808 17 8.5 17C13.192 17 17 13.192 17 8.5C17 3.808 13.192 0 8.5 0ZM12.444 5.78C12.3165 7.123 11.764 10.387 11.4835 11.8915C11.3645 12.529 11.1265 12.7415 10.9055 12.767C10.4125 12.8095 10.0385 12.444 9.5625 12.1295C8.8145 11.6365 8.3895 11.3305 7.667 10.8545C6.8255 10.302 7.3695 9.996 7.854 9.503C7.9815 9.3755 10.1575 7.395 10.2 7.2165C10.2059 7.18946 10.2051 7.1614 10.1977 7.13473C10.1903 7.10807 10.1765 7.08362 10.1575 7.0635C10.1065 7.021 10.0385 7.038 9.979 7.0465C9.9025 7.0635 8.7125 7.854 6.392 9.418C6.052 9.6475 5.746 9.7665 5.474 9.758C5.168 9.7495 4.59 9.588 4.1565 9.4435C3.621 9.2735 3.2045 9.18 3.2385 8.8825C3.2555 8.7295 3.468 8.5765 3.8675 8.415C6.3495 7.3355 7.9985 6.6215 8.823 6.2815C11.186 5.2955 11.6705 5.1255 11.9935 5.1255C12.0615 5.1255 12.223 5.1425 12.325 5.2275C12.41 5.2955 12.4355 5.389 12.444 5.457C12.4355 5.508 12.4525 5.661 12.444 5.78V5.78Z" fill="black"/>
</svg>
